<?xml version="1.0" encoding="utf-8"?>
<!-- Generator: Adobe Illustrator 16.0.0, SVG Export Plug-In . SVG Version: 6.00 Build 0)  -->
<!DOCTYPE svg PUBLIC "-//W3C//DTD SVG 1.1//EN" "http://www.w3.org/Graphics/SVG/1.1/DTD/svg11.dtd">
<svg version="1.1" id="Capa_1" xmlns="http://www.w3.org/2000/svg" xmlns:xlink="http://www.w3.org/1999/xlink" x="0px" y="0px"
	 width="595.281px" height="841.891px" viewBox="0 0 595.281 841.891" enable-background="new 0 0 595.281 841.891"
	 xml:space="preserve">
<path fill="#0076E0" d="M198.127,471.073v-41.619c0-14.457-11.719-26.176-26.175-26.176H11.626v301.537h160.326
	c14.457,0,26.175-11.72,26.175-26.175V549.074V471.073z"/>
<path fill="#FF8503" d="M545.962,480.807l-30.254-0.004c20.816,0,37.691-16.875,37.691-37.692l0,0
	c0-20.816-16.875-37.692-37.691-37.692H370.144l22.09-65.585c12.029-35.714-7.836-74.304-43.891-85.265l-20.398-6.202
	l-32.053,88.589c-10.055,27.79-29.938,50.938-55.892,65.069l-42.652,23.226l0.778,259.533l27.124,10.637
	c19.44,7.624,40.135,11.537,61.016,11.537h122.523h39.783h40.852c20.816,0,37.691-16.875,37.691-37.692l0,0
	c0-20.816-16.875-37.692-37.691-37.692h29.299c20.816,0,37.693-16.874,37.693-37.691l0,0c0-20.816-16.875-37.692-37.693-37.692
	h27.24c20.814,0,37.691-16.875,37.691-37.692l0,0C583.654,497.681,566.779,480.807,545.962,480.807z"/>
<circle fill="#FFFFFF" cx="126.927" cy="638.99" r="20.939"/>
<path d="M198.128,504.529c-3.059,0-6.058,1.233-8.22,3.395c-2.163,2.174-3.406,5.174-3.406,8.22c0,3.069,1.243,6.058,3.406,8.221
	c2.163,2.173,5.161,3.406,8.22,3.406c3.058,0,6.057-1.233,8.219-3.406c2.163-2.163,3.408-5.152,3.408-8.221
	c0-3.046-1.244-6.046-3.408-8.22C204.186,505.761,201.186,504.529,198.128,504.529z"/>
<path d="M595.281,518.499c0-23.479-16.5-43.167-38.51-48.11c5.211-7.817,8.256-17.198,8.256-27.277
	c0-27.194-22.125-49.318-49.318-49.318H386.328l16.924-50.247c6.832-20.277,5.199-41.923-4.594-60.947
	c-9.793-19.023-26.461-32.929-46.932-39.152l-20.398-6.201c-5.928-1.803-12.211,1.353-14.314,7.168l-32.054,88.588
	c-9.098,25.143-27.039,46.029-50.519,58.814l-32.021,17.438c-6.888-9.367-17.977-15.459-30.468-15.459H11.626
	C5.207,393.794,0,399,0,405.42v301.538c0,6.42,5.207,11.627,11.626,11.627h160.326c13.909,0,26.079-7.557,32.643-18.773
	l16.411,6.437c20.879,8.187,42.836,12.338,65.26,12.338h203.158c27.193,0,49.318-22.124,49.318-49.319
	c0-10.16-3.09-19.61-8.377-27.466c21.592-5.247,37.678-24.734,37.678-47.918c0-10.36-3.219-19.98-8.699-27.926
	C580.052,560.108,595.281,541.054,595.281,518.499z M545.962,544.563h-27.24h-53.396h-38.949c-6.42,0-11.627,5.207-11.627,11.627
	s5.207,11.627,11.627,11.627h38.949h53.396c14.373,0,26.066,11.692,26.066,26.065s-11.693,26.065-26.066,26.065h-29.299h-59.086
	h-3.959c-6.422,0-11.627,5.206-11.627,11.627c0,6.42,5.205,11.626,11.627,11.626h3.959h59.086c14.373,0,26.064,11.693,26.064,26.065
	c0,14.373-11.691,26.066-26.064,26.066H286.266c-19.507,0-38.607-3.611-56.77-10.734l-19.741-7.742V562.79
	c0-6.421-5.207-11.627-11.626-11.627c-6.42,0-11.626,5.206-11.626,11.627v117.991c0,8.021-6.526,14.549-14.55,14.549H23.253V417.046
	h148.699c8.022,0,14.55,6.526,14.55,14.55v39.478c0,6.421,5.206,11.627,11.626,11.627c6.42,0,11.626-5.206,11.626-11.627v-39.338
	l35.806-19.499c28.475-15.505,50.231-40.834,61.265-71.325l28.299-78.209l9.838,2.99c14.404,4.38,26.131,14.162,33.021,27.548
	s8.037,28.614,3.232,42.881l-22.09,65.585c-1.195,3.548-0.609,7.453,1.574,10.494c2.184,3.04,5.699,4.843,9.443,4.843h145.564
	c14.373,0,26.064,11.693,26.064,26.066s-11.691,26.065-26.064,26.065h-89.332c-6.42,0-11.627,5.206-11.627,11.627
	c0,6.42,5.207,11.626,11.627,11.626h38.883c0.023,0,0.045,0.004,0.068,0.004h80.635c14.371,0,26.064,11.692,26.064,26.065
	C572.027,532.872,560.333,544.563,545.962,544.563z"/>
<path d="M126.931,606.424c-17.957,0-32.567,14.609-32.567,32.566s14.608,32.567,32.567,32.567s32.567-14.609,32.567-32.567
	C159.498,621.034,144.888,606.424,126.931,606.424z M126.931,648.304c-5.135,0-9.314-4.179-9.314-9.314s4.179-9.313,9.314-9.313
	c5.136,0,9.314,4.177,9.314,9.313S132.066,648.304,126.931,648.304z"/>
<path d="M347.423,146.558c3.061,0,6.059-1.244,8.221-3.408c2.162-2.161,3.406-5.161,3.406-8.219s-1.242-6.058-3.406-8.22
	c-2.164-2.163-5.16-3.406-8.221-3.406c-3.057,0-6.057,1.242-8.219,3.406c-2.162,2.162-3.406,5.162-3.406,8.22
	s1.242,6.058,3.406,8.219C341.367,145.314,344.367,146.558,347.423,146.558z"/>
<path d="M347.425,166.711c-6.42,0-11.627,5.206-11.627,11.626v28.292c0,6.421,5.207,11.627,11.627,11.627
	s11.627-5.206,11.627-11.627v-28.292C359.052,171.917,353.847,166.711,347.425,166.711z"/>
<path d="M416.689,287.549c0,6.421,5.205,11.627,11.625,11.627h71.697c6.42,0,11.627-5.206,11.627-11.627
	c0-6.42-5.207-11.626-11.627-11.626h-71.697C421.894,275.923,416.689,281.128,416.689,287.549z"/>
<path d="M194.808,299.144h71.698c6.42,0,11.626-5.207,11.626-11.627s-5.206-11.626-11.626-11.626h-71.698
	c-6.42,0-11.626,5.206-11.626,11.626S188.386,299.144,194.808,299.144z"/>
<path d="M273.465,230.009c2.271,2.27,5.246,3.406,8.221,3.406c2.976,0,5.951-1.137,8.221-3.406c4.54-4.54,4.54-11.901,0-16.443
	l-33.851-33.851c-4.542-4.539-11.901-4.539-16.443,0c-4.541,4.54-4.541,11.902,0,16.443L273.465,230.009z"/>
<path d="M413.154,233.436c2.977,0,5.951-1.136,8.223-3.405l33.85-33.851c4.541-4.54,4.541-11.902,0-16.443
	c-4.541-4.539-11.9-4.539-16.443,0l-33.85,33.851c-4.541,4.54-4.541,11.902,0,16.443
	C407.203,232.301,410.179,233.436,413.154,233.436z"/>
<path d="M909.871,522.095c-3.059,0-6.059-1.243-8.221-3.406c-2.162-2.162-3.406-5.162-3.406-8.22s1.242-6.058,3.406-8.22
	c2.162-2.163,5.162-3.407,8.221-3.407c3.057,0,6.057,1.244,8.219,3.407c2.162,2.162,3.408,5.162,3.408,8.22s-1.244,6.058-3.408,8.22
	C915.927,520.852,912.927,522.095,909.871,522.095z"/>
</svg>
