<?xml version="1.0" encoding="utf-8"?>
<!-- Generator: Adobe Illustrator 16.0.0, SVG Export Plug-In . SVG Version: 6.00 Build 0)  -->
<!DOCTYPE svg PUBLIC "-//W3C//DTD SVG 1.1//EN" "http://www.w3.org/Graphics/SVG/1.1/DTD/svg11.dtd">
<svg version="1.1" id="Capa_1" xmlns="http://www.w3.org/2000/svg" xmlns:xlink="http://www.w3.org/1999/xlink" x="0px" y="0px"
	 width="595.281px" height="841.891px" viewBox="0 0 595.281 841.891" enable-background="new 0 0 595.281 841.891"
	 xml:space="preserve">
<polygon fill="#0076E0" points="520.871,706.959 297.64,590.803 74.41,706.959 74.41,134.931 520.871,134.931 "/>
<path d="M520.871,718.586c-1.84,0-3.682-0.437-5.367-1.313L297.64,603.91L79.777,717.273c-3.602,1.874-7.923,1.734-11.4-0.375
	c-3.473-2.108-5.593-5.876-5.593-9.939V351.767c0-6.422,5.206-11.627,11.626-11.627c6.42,0,11.626,5.205,11.626,11.627v336.035
	L292.273,580.49c3.366-1.75,7.369-1.75,10.734,0l206.236,107.313V543.8c0-6.421,5.207-11.626,11.627-11.626
	s11.627,5.205,11.627,11.626v163.159c0,4.063-2.121,7.831-5.596,9.939C525.054,718.02,522.964,718.586,520.871,718.586z"/>
<path d="M520.871,467.839c-6.42,0-11.627-5.205-11.627-11.626V146.558H86.037v111.615c0,6.421-5.207,11.626-11.626,11.626
	c-6.42,0-11.626-5.205-11.626-11.626V134.931c0-6.421,5.206-11.626,11.626-11.626h446.46c6.42,0,11.627,5.205,11.627,11.626v321.281
	C532.498,462.634,527.292,467.839,520.871,467.839z"/>
<polygon fill="#FF8503" points="297.61,231.643 340.267,318.017 435.603,331.844 366.636,399.104 382.947,494.047 297.668,449.242 
	212.413,494.092 228.671,399.14 159.671,331.918 255,318.04 "/>
<path d="M212.413,505.719c-2.409,0-4.808-0.749-6.833-2.219c-3.581-2.601-5.375-7.008-4.627-11.37l15.229-88.927l-64.623-62.958
	c-3.17-3.088-4.311-7.708-2.945-11.917c1.367-4.21,5.005-7.278,9.384-7.915l89.278-12.997l39.907-80.916
	c1.958-3.969,5.998-6.482,10.424-6.483c0.001,0,0.002,0,0.003,0c4.425,0,8.466,2.511,10.425,6.479l39.951,80.894l89.285,12.95
	c4.381,0.635,8.02,3.701,9.389,7.91c1.367,4.209,0.229,8.829-2.939,11.92l-64.59,62.992l15.275,88.92
	c0.75,4.36-1.041,8.77-4.623,11.371c-3.58,2.604-8.326,2.947-12.244,0.889l-79.867-41.963l-79.845,42.005
	C216.124,505.277,214.265,505.719,212.413,505.719z M184.658,340.029l52.128,50.783c2.74,2.671,3.993,6.519,3.346,10.291
	l-12.284,71.731l64.407-33.884c3.389-1.781,7.434-1.782,10.823-0.002l64.424,33.849l-12.322-71.724
	c-0.648-3.771,0.602-7.62,3.34-10.293l52.102-50.812l-72.021-10.445c-3.787-0.55-7.061-2.928-8.754-6.357l-32.227-65.252
	l-32.19,65.27c-1.693,3.432-4.966,5.811-8.752,6.362L184.658,340.029z"/>
<path d="M74.41,317.085c-3.058,0-6.058-1.244-8.22-3.406c-2.163-2.163-3.406-5.162-3.406-8.22c0-3.069,1.243-6.058,3.406-8.232
	c2.163-2.162,5.162-3.395,8.22-3.395c3.058,0,6.057,1.232,8.219,3.395c2.163,2.175,3.408,5.174,3.408,8.232
	c0,3.058-1.244,6.046-3.408,8.22C80.467,315.841,77.468,317.085,74.41,317.085z"/>
<path d="M520.871,510.469c-3.059,0-6.059-1.243-8.221-3.406c-2.162-2.162-3.406-5.162-3.406-8.22s1.242-6.058,3.406-8.22
	c2.162-2.163,5.162-3.407,8.221-3.407c3.057,0,6.057,1.244,8.219,3.407c2.162,2.162,3.408,5.162,3.408,8.22s-1.244,6.058-3.408,8.22
	C526.927,509.226,523.927,510.469,520.871,510.469z"/>
</svg>
