<?xml version="1.0" encoding="utf-8"?>
<!-- Generator: Adobe Illustrator 16.0.0, SVG Export Plug-In . SVG Version: 6.00 Build 0)  -->
<!DOCTYPE svg PUBLIC "-//W3C//DTD SVG 1.1//EN" "http://www.w3.org/Graphics/SVG/1.1/DTD/svg11.dtd">
<svg version="1.1" id="Capa_1" xmlns="http://www.w3.org/2000/svg" xmlns:xlink="http://www.w3.org/1999/xlink" x="0px" y="0px"
	 width="595.281px" height="841.891px" viewBox="0 0 595.281 841.891" enable-background="new 0 0 595.281 841.891"
	 xml:space="preserve">
<circle fill="#0076E0" cx="230.207" cy="353.454" r="218.592"/>
<circle fill="#FFFFFF" cx="230.207" cy="353.454" r="162.781"/>
<path fill="#FF8503" d="M409.101,481.786l164.104,164.103c13.961,13.961,13.961,36.599,0,50.562
	c-6.98,6.979-16.131,10.472-25.281,10.472s-18.299-3.49-25.281-10.472L358.539,532.347L409.101,481.786z"/>
<rect x="370.088" y="497.941" transform="matrix(-0.7071 0.7071 -0.7071 -0.7071 1066.9376 616.2401)" fill="#F0F0FA" width="71.506" height="62.298"/>
<path d="M230.207,527.862c96.169,0,174.408-78.24,174.408-174.408s-78.238-174.409-174.408-174.409
	c-96.169,0-174.409,78.24-174.409,174.408S134.038,527.862,230.207,527.862z M230.207,202.3
	c83.347,0,151.154,67.806,151.154,151.153s-67.807,151.153-151.154,151.153c-83.346,0-151.154-67.806-151.154-151.153
	S146.861,202.3,230.207,202.3z"/>
<path d="M83.861,499.801c-4.54-4.539-11.903-4.539-16.445,0c-4.54,4.54-4.54,11.903,0,16.444l1.079,1.072
	c2.266,2.239,5.22,3.357,8.172,3.357c2.999,0,5.995-1.152,8.269-3.453c4.515-4.567,4.472-11.93-0.095-16.444L83.861,499.801z"/>
<path d="M581.425,637.667l-158.4-158.399c58.254-89.233,48.252-210.322-30.027-288.604c-89.764-89.761-235.817-89.761-325.58,0
	C30.165,227.918,6.659,277.24,1.227,329.542c-5.353,51.549,6.935,103.881,34.602,147.357c3.447,5.419,10.635,7.015,16.051,3.567
	c5.417-3.447,7.015-10.635,3.567-16.052C3.871,383.362,15.819,275.147,83.861,207.106c80.696-80.695,211.997-80.695,292.691,0
	c80.695,80.695,80.695,211.996,0,292.691c-69.609,69.612-179.445,80.505-261.161,25.9c-5.337-3.566-12.56-2.131-16.127,3.208
	s-2.131,12.561,3.208,16.127c38.757,25.898,83.188,38.553,127.424,38.553c44.196,0,88.186-12.65,126.096-37.343l38.369,38.369
	c0.002,0.002,0.004,0.004,0.006,0.005c0,0.001,0.004,0.003,0.004,0.005L514.419,704.67c8.949,8.948,20.848,13.877,33.502,13.877
	s24.553-4.927,33.504-13.878C599.898,686.196,599.898,656.139,581.425,637.667z M392.998,516.244
	c5.76-5.761,11.145-11.757,16.166-17.952l27.555,27.553c-0.068,0.065-0.143,0.122-0.209,0.189l-33.92,33.92l-27.553-27.553
	C381.248,527.375,387.248,521.993,392.998,516.244z M564.984,688.227c-4.559,4.558-10.617,7.066-17.061,7.066
	s-12.502-2.509-17.061-7.065l-111.83-111.829l33.92-33.919c0.066-0.067,0.125-0.141,0.189-0.209l111.842,111.84
	C574.388,663.515,574.388,678.821,564.984,688.227z"/>
<path d="M266.175,266.383c35.363,14.625,58.213,48.803,58.213,87.071c0,6.42,5.205,11.628,11.627,11.628
	c6.424,0,11.629-5.206,11.629-11.628c0-47.713-28.488-90.325-72.582-108.561c-5.934-2.452-12.734,0.366-15.189,6.301
	S260.24,263.927,266.175,266.383z"/>
<path d="M230.207,259.273c0.433,0,0.863,0.003,1.294,0.009c0.056,0.002,0.11,0.002,0.166,0.002c6.345,0,11.534-5.099,11.623-11.464
	c0.091-6.421-5.041-11.701-11.464-11.791c-0.54-0.008-1.079-0.012-1.621-0.012c-6.421,0-11.628,5.207-11.628,11.628
	S223.786,259.273,230.207,259.273z"/>
</svg>
